<svg width="68" height="68" viewBox="0 0 68 68" fill="none" xmlns="http://www.w3.org/2000/svg">
<path d="M34 5.66666C18.377 5.66666 5.66669 18.377 5.66669 34C5.66669 49.623 18.377 62.3333 34 62.3333C49.623 62.3333 62.3334 49.623 62.3334 34C62.3334 18.377 49.623 5.66666 34 5.66666ZM11.3334 34C11.3334 31.4528 11.7754 29.0077 12.5545 26.7212L17 31.1667L22.6667 36.8333V42.5L28.3334 48.1667L31.1667 51V56.4712C20.0062 55.0687 11.3334 45.5373 11.3334 34ZM51.935 47.8068C50.0849 46.3165 47.2799 45.3333 45.3334 45.3333V42.5C45.3334 40.9971 44.7363 39.5558 43.6736 38.4931C42.6109 37.4303 41.1696 36.8333 39.6667 36.8333H28.3334V28.3333C29.8362 28.3333 31.2776 27.7363 32.3403 26.6736C33.403 25.6109 34 24.1696 34 22.6667V19.8333H36.8334C38.3363 19.8333 39.7776 19.2363 40.8403 18.1736C41.903 17.1109 42.5 15.6696 42.5 14.1667V13.0022C50.796 16.371 56.6667 24.5083 56.6667 34C56.6662 39 55.0015 43.8576 51.935 47.8068Z" fill="#0069C0"/>
</svg>
