<svg width="242" height="68" viewBox="0 0 242 68" fill="none" xmlns="http://www.w3.org/2000/svg">
<path d="M34.0001 5.66669C18.3771 5.66669 5.66675 18.377 5.66675 34C5.66675 49.623 18.3771 62.3334 34.0001 62.3334C49.6231 62.3334 62.3334 49.623 62.3334 34C62.3334 18.377 49.6231 5.66669 34.0001 5.66669ZM11.3334 34C11.3334 31.4529 11.7754 29.0077 12.5546 26.7212L17.0001 31.1667L22.6667 36.8334V42.5L28.3334 48.1667L31.1667 51V56.4712C20.0062 55.0687 11.3334 45.5374 11.3334 34ZM51.9351 47.8069C50.0849 46.3165 47.2799 45.3334 45.3334 45.3334V42.5C45.3334 40.9971 44.7364 39.5558 43.6737 38.4931C42.611 37.4304 41.1696 36.8334 39.6667 36.8334H28.3334V28.3334C29.8363 28.3334 31.2776 27.7363 32.3404 26.6736C33.4031 25.6109 34.0001 24.1696 34.0001 22.6667V19.8334H36.8334C38.3363 19.8334 39.7776 19.2363 40.8404 18.1736C41.9031 17.1109 42.5001 15.6696 42.5001 14.1667V13.0022C50.7961 16.371 56.6668 24.5084 56.6668 34C56.6662 39 55.0015 43.8576 51.9351 47.8069Z" fill="white"/>
<path d="M79.488 33.72C79.488 31.64 79.856 29.608 80.592 27.624C81.36 25.608 82.464 23.784 83.904 22.152C85.344 20.488 87.104 19.176 89.184 18.216C91.264 17.224 93.632 16.728 96.288 16.728C99.424 16.728 102.128 17.416 104.4 18.792C106.704 20.168 108.416 21.96 109.536 24.168L104.448 27.672C103.872 26.392 103.12 25.384 102.192 24.648C101.264 23.88 100.272 23.352 99.216 23.064C98.16 22.744 97.12 22.584 96.096 22.584C94.432 22.584 92.976 22.92 91.728 23.592C90.512 24.264 89.488 25.144 88.656 26.232C87.824 27.32 87.2 28.536 86.784 29.88C86.4 31.224 86.208 32.568 86.208 33.912C86.208 35.416 86.448 36.872 86.928 38.28C87.408 39.656 88.08 40.888 88.944 41.976C89.84 43.032 90.896 43.88 92.112 44.52C93.36 45.128 94.72 45.432 96.192 45.432C97.248 45.432 98.32 45.256 99.408 44.904C100.496 44.552 101.504 43.992 102.432 43.224C103.36 42.456 104.08 41.464 104.592 40.248L110.016 43.368C109.344 45.064 108.24 46.504 106.704 47.688C105.2 48.872 103.504 49.768 101.616 50.376C99.728 50.984 97.856 51.288 96 51.288C93.568 51.288 91.344 50.792 89.328 49.8C87.312 48.776 85.568 47.432 84.096 45.768C82.656 44.072 81.52 42.184 80.688 40.104C79.888 37.992 79.488 35.864 79.488 33.72ZM128.58 51.24C126.084 51.24 123.812 50.76 121.764 49.8C119.748 48.84 118.004 47.544 116.532 45.912C115.092 44.248 113.972 42.392 113.172 40.344C112.372 38.264 111.972 36.136 111.972 33.96C111.972 31.688 112.388 29.528 113.22 27.48C114.084 25.4 115.252 23.56 116.724 21.96C118.228 20.328 119.988 19.048 122.004 18.12C124.052 17.16 126.292 16.68 128.724 16.68C131.188 16.68 133.428 17.176 135.444 18.168C137.492 19.16 139.236 20.488 140.676 22.152C142.116 23.816 143.236 25.672 144.036 27.72C144.836 29.768 145.236 31.88 145.236 34.056C145.236 36.296 144.82 38.456 143.988 40.536C143.156 42.584 141.988 44.424 140.484 46.056C139.012 47.656 137.252 48.92 135.204 49.848C133.188 50.776 130.98 51.24 128.58 51.24ZM118.692 33.96C118.692 35.432 118.916 36.856 119.364 38.232C119.812 39.608 120.452 40.84 121.284 41.928C122.148 42.984 123.188 43.832 124.404 44.472C125.652 45.08 127.06 45.384 128.628 45.384C130.228 45.384 131.652 45.064 132.9 44.424C134.148 43.752 135.188 42.872 136.02 41.784C136.852 40.664 137.476 39.432 137.892 38.088C138.34 36.712 138.564 35.336 138.564 33.96C138.564 32.488 138.324 31.08 137.844 29.736C137.396 28.36 136.74 27.144 135.876 26.088C135.044 25 134.004 24.152 132.756 23.544C131.54 22.904 130.164 22.584 128.628 22.584C126.996 22.584 125.556 22.92 124.308 23.592C123.092 24.232 122.068 25.096 121.236 26.184C120.404 27.272 119.764 28.488 119.316 29.832C118.9 31.176 118.692 32.552 118.692 33.96ZM156.942 29.112V51H150.318V16.92H155.598L173.214 39.384V16.968H179.838V51H174.318L156.942 29.112ZM210.591 45.192V51H186.927V16.92H210.159V22.728H193.551V30.936H207.903V36.312H193.551V45.192H210.591ZM241.243 22.728H230.347V51H223.771V22.728H212.875V16.92H241.243V22.728Z" fill="white"/>
</svg>
