<svg width="72" height="72" viewBox="0 0 72 72" fill="none" xmlns="http://www.w3.org/2000/svg">
<path d="M36.0001 26.6273C30.8392 26.6273 26.6274 30.839 26.6274 36C26.6274 41.1609 30.8392 45.3726 36.0001 45.3726C41.161 45.3726 45.3728 41.1609 45.3728 36C45.3728 30.839 41.161 26.6273 36.0001 26.6273ZM64.111 36C64.111 32.1187 64.1462 28.2726 63.9282 24.3984C63.7103 19.8984 62.6837 15.9047 59.3931 12.614C56.0954 9.31639 52.1087 8.29685 47.6087 8.07889C43.7274 7.86092 39.8813 7.89607 36.0071 7.89607C32.1259 7.89607 28.2798 7.86092 24.4056 8.07889C19.9056 8.29685 15.9118 9.32342 12.6212 12.614C9.32353 15.9117 8.304 19.8984 8.08603 24.3984C7.86806 28.2797 7.90321 32.1258 7.90321 36C7.90321 39.8742 7.86806 43.7273 8.08603 47.6015C8.304 52.1015 9.33056 56.0953 12.6212 59.3859C15.9188 62.6836 19.9056 63.7031 24.4056 63.9211C28.2868 64.139 32.1329 64.1039 36.0071 64.1039C39.8884 64.1039 43.7345 64.139 47.6087 63.9211C52.1087 63.7031 56.1025 62.6765 59.3931 59.3859C62.6907 56.0883 63.7103 52.1015 63.9282 47.6015C64.1532 43.7273 64.111 39.8812 64.111 36ZM36.0001 50.4211C28.0196 50.4211 21.579 43.9804 21.579 36C21.579 28.0195 28.0196 21.5789 36.0001 21.5789C43.9806 21.5789 50.4212 28.0195 50.4212 36C50.4212 43.9804 43.9806 50.4211 36.0001 50.4211ZM51.0118 24.3562C49.1485 24.3562 47.6439 22.8515 47.6439 20.9883C47.6439 19.125 49.1485 17.6203 51.0118 17.6203C52.8751 17.6203 54.3798 19.125 54.3798 20.9883C54.3803 21.4307 54.2936 21.8689 54.1245 22.2778C53.9555 22.6867 53.7074 23.0582 53.3946 23.371C53.0817 23.6839 52.7102 23.9319 52.3013 24.101C51.8925 24.27 51.4543 24.3568 51.0118 24.3562Z" fill="white"/>
</svg>
