<svg width="72" height="72" viewBox="0 0 72 72" fill="none" xmlns="http://www.w3.org/2000/svg">
<path d="M65.25 11.25H6.75C5.50547 11.25 4.5 12.2555 4.5 13.5V58.5C4.5 59.7445 5.50547 60.75 6.75 60.75H65.25C66.4945 60.75 67.5 59.7445 67.5 58.5V13.5C67.5 12.2555 66.4945 11.25 65.25 11.25ZM59.5688 18.907L37.3852 36.1688C36.8367 36.5977 36.0703 36.5977 35.5219 36.1688L13.3313 18.907C13.2476 18.8425 13.1862 18.7534 13.1558 18.6522C13.1253 18.551 13.1273 18.4428 13.1614 18.3428C13.1955 18.2428 13.2601 18.156 13.346 18.0945C13.4319 18.033 13.535 18 13.6406 18H59.2594C59.365 18 59.4681 18.033 59.554 18.0945C59.6399 18.156 59.7045 18.2428 59.7386 18.3428C59.7727 18.4428 59.7747 18.551 59.7442 18.6522C59.7138 18.7534 59.6524 18.8425 59.5688 18.907Z" fill="white"/>
</svg>
