<?xml version="1.0" encoding="utf-8"?>
<!-- Generator: Adobe Illustrator 16.0.0, SVG Export Plug-In . SVG Version: 6.00 Build 0)  -->
<!DOCTYPE svg PUBLIC "-//W3C//DTD SVG 1.0//EN" "http://www.w3.org/TR/2001/REC-SVG-20010904/DTD/svg10.dtd">
<svg version="1.0" id="Layer_1" xmlns="http://www.w3.org/2000/svg" xmlns:xlink="http://www.w3.org/1999/xlink" x="0px" y="0px"
	 width="100px" height="100px" viewBox="0 0 100 100" enable-background="new 0 0 100 100" xml:space="preserve" fill="#0069C0">
<path d="M86.668,68.335c1.833,0,3.334,1.501,3.334,3.334v15c0,1.832-1.501,3.333-3.334,3.333h-15c-1.832,0-3.333-1.501-3.333-3.333
	v-15c0-1.833,1.501-3.334,3.333-3.334H86.668z"/>
<path d="M86.668,39.168c1.833,0,3.334,1.501,3.334,3.334v15c0,1.833-1.501,3.333-3.334,3.333h-15c-1.832,0-3.333-1.5-3.333-3.333
	v-15c0-1.833,1.501-3.334,3.333-3.334H86.668z"/>
<path d="M57.502,10.002c1.832,0,3.333,1.5,3.333,3.333v73.334c0,1.832-1.501,3.333-3.333,3.333H13.334
	c-1.832,0-3.333-1.501-3.333-3.333V13.335c0-1.833,1.501-3.333,3.333-3.333H57.502z"/>
<path d="M86.668,10.002c1.833,0,3.334,1.5,3.334,3.333v15c0,1.833-1.501,3.333-3.334,3.333h-15c-1.832,0-3.333-1.5-3.333-3.333v-15
	c0-1.833,1.501-3.333,3.333-3.333H86.668z"/>
</svg>
