<svg width="72" height="72" viewBox="0 0 72 72" fill="none" xmlns="http://www.w3.org/2000/svg">
<path d="M60.4799 20.52C51.8399 7.2 34.1999 3.24 20.5199 11.52C7.19994 19.8 2.87994 37.8 11.5199 51.12L12.2399 52.2L9.35994 63L20.1599 60.12L21.2399 60.84C25.9199 63.36 30.9599 64.8 35.9999 64.8C41.3999 64.8 46.7999 63.36 51.4799 60.48C64.7999 51.84 68.7599 34.2 60.4799 20.52ZM52.9199 48.24C51.4799 50.4 49.6799 51.84 47.1599 52.2C45.7199 52.2 43.9199 52.92 36.7199 50.04C30.5999 47.16 25.5599 42.48 21.9599 37.08C19.7999 34.56 18.7199 31.32 18.3599 28.08C18.3599 25.2 19.4399 22.68 21.2399 20.88C21.9599 20.16 22.6799 19.8 23.3999 19.8H25.1999C25.9199 19.8 26.6399 19.8 26.9999 21.24C27.7199 23.04 29.5199 27.36 29.5199 27.72C29.8799 28.08 29.8799 28.8 29.5199 29.16C29.8799 29.88 29.5199 30.6 29.1599 30.96C28.7999 31.32 28.4399 32.04 28.0799 32.4C27.3599 32.76 26.9999 33.48 27.3599 34.2C28.7999 36.36 30.5999 38.52 32.3999 40.32C34.5599 42.12 36.7199 43.56 39.2399 44.64C39.9599 45 40.6799 45 41.0399 44.28C41.3999 43.56 43.1999 41.76 43.9199 41.04C44.6399 40.32 44.9999 40.32 45.7199 40.68L51.4799 43.56C52.1999 43.92 52.9199 44.28 53.2799 44.64C53.6399 45.72 53.6399 47.16 52.9199 48.24Z" fill="white"/>
</svg>
